<svg xmlns="http://www.w3.org/2000/svg" enable-background="new 0 0 24 24" viewBox="0 0 24 24" id="aurelia"><linearGradient id="a" x1="-57.8" x2="-54.211" y1="1817.386" y2="1814.091" gradientTransform="matrix(7.8859 0 0 -8.5893 454.137 15598.627)" gradientUnits="userSpaceOnUse"><stop offset="0" stop-color="#c06fbb"></stop><stop offset="1" stop-color="#6e4d9b"></stop></linearGradient><path fill="url(#a)" d="M15.716,4.636l-2.227,1.487l-2.295-3.439l2.227-1.487L15.716,4.636L15.716,4.636z"></path><linearGradient id="b" x1="-1305.004" x2="-1304.004" y1="-77.597" y2="-77.597" gradientTransform="matrix(-15.3056 -22.5702 20.8989 -16.5296 -18332.111 -30715.56)" gradientUnits="userSpaceOnUse"><stop offset="0" stop-color="#6e4d9b"></stop><stop offset=".14" stop-color="#77327a"></stop><stop offset=".29" stop-color="#b31777"></stop><stop offset=".84" stop-color="#cd0f7e"></stop><stop offset="1" stop-color="#ed2c89"></stop></linearGradient><polygon fill="url(#b)" points="16.863 13.972 14.664 15.439 19.051 22.193 21.333 20.67 17.527 14.967 16.863 13.972"></polygon><linearGradient id="c" x1="-1305.069" x2="-1304.069" y1="-77.645" y2="-77.645" gradientTransform="matrix(-15.3486 -22.6626 20.9965 -16.5665 -18378.666 -30838.928)" gradientUnits="userSpaceOnUse"><stop offset="0" stop-color="#6e4d9b"></stop><stop offset=".14" stop-color="#77327a"></stop><stop offset=".29" stop-color="#b31777"></stop><stop offset=".84" stop-color="#cd0f7e"></stop><stop offset="1" stop-color="#ed2c89"></stop></linearGradient><polygon fill="url(#c)" points="7.743 .305 5.713 1.66 10.087 8.393 12.2 6.983 11.513 5.955 7.743 .305"></polygon><linearGradient id="d" x1="-1314.986" x2="-1313.986" y1="-112.482" y2="-112.482" gradientTransform="matrix(20.3842 -13.3786 13.4609 20.3286 28320.748 -15287.192)" gradientUnits="userSpaceOnUse"><stop offset="0" stop-color="#6e4d9b"></stop><stop offset=".14" stop-color="#77327a"></stop><stop offset=".53" stop-color="#b31777"></stop><stop offset=".79" stop-color="#cd0f7e"></stop><stop offset="1" stop-color="#ed2c89"></stop></linearGradient><polygon fill="url(#d)" points="20.063 2.706 10.533 9.08 14.246 14.796 24 8.287 20.063 2.706"></polygon><linearGradient id="e" x1="-1305.004" x2="-1304.004" y1="-77.697" y2="-77.697" gradientTransform="matrix(-15.3056 -22.5702 20.8989 -16.5296 -18332.111 -30715.56)" gradientUnits="userSpaceOnUse"><stop offset="0" stop-color="#604387"></stop><stop offset=".14" stop-color="#682c6a"></stop><stop offset=".29" stop-color="#9c1468"></stop><stop offset=".84" stop-color="#b20d6e"></stop><stop offset="1" stop-color="#ce2677"></stop></linearGradient><polygon fill="url(#e)" points="14.664 15.439 12.33 16.997 12.994 17.992 16.799 23.695 19.051 22.193 14.664 15.439"></polygon><linearGradient id="f" x1="-1305.069" x2="-1304.069" y1="-77.746" y2="-77.746" gradientTransform="matrix(-15.3486 -22.6626 20.9965 -16.5665 -18378.666 -30838.928)" gradientUnits="userSpaceOnUse"><stop offset="0" stop-color="#604387"></stop><stop offset=".14" stop-color="#682c6a"></stop><stop offset=".29" stop-color="#9c1468"></stop><stop offset=".84" stop-color="#b20d6e"></stop><stop offset="1" stop-color="#ce2677"></stop></linearGradient><polygon fill="url(#f)" points="5.713 1.66 3.209 3.33 6.979 8.98 7.666 10.008 10.087 8.393 5.713 1.66"></polygon><linearGradient id="g" x1="-1314.986" x2="-1313.986" y1="-112.478" y2="-112.478" gradientTransform="matrix(20.3842 -13.3786 13.4609 20.3286 28320.748 -15287.192)" gradientUnits="userSpaceOnUse"><stop offset="0" stop-color="#604387"></stop><stop offset=".14" stop-color="#682c6a"></stop><stop offset=".53" stop-color="#9c1468"></stop><stop offset=".79" stop-color="#b20d6e"></stop><stop offset="1" stop-color="#ce2677"></stop></linearGradient><polygon fill="url(#g)" points="10.533 9.08 0 16.125 3.754 21.797 14.246 14.796 10.533 9.08"></polygon><linearGradient id="h" x1="-1339.01" x2="-1338.01" y1="-94.705" y2="-94.705" gradientTransform="matrix(28.3008 36.2134 -39.3894 26.0189 34152.75 50944.11)" gradientUnits="userSpaceOnUse"><stop offset="0" stop-color="#c06fbb"></stop><stop offset="1" stop-color="#6e4d9b"></stop></linearGradient><polygon fill="url(#h)" points="11.153 17.782 9.535 18.862 11.009 21.131 12.655 20.033 11.817 18.777 11.153 17.782"></polygon><linearGradient id="i" x1="-1317.19" x2="-1316.19" y1="-73.981" y2="-73.981" gradientTransform="scale(39.459 -39.459) rotate(41.386 -755.908 1706.002)" gradientUnits="userSpaceOnUse"><stop offset="0" stop-color="#c06fbb"></stop><stop offset="1" stop-color="#6e4d9b"></stop></linearGradient><polygon fill="url(#i)" points="4.194 7.355 2.706 8.348 4.958 11.816 6.489 10.793 5.803 9.765 4.194 7.355"></polygon><linearGradient id="j" x1="-1339.01" x2="-1338.01" y1="-94.661" y2="-94.661" gradientTransform="matrix(28.3008 36.2134 -39.3894 26.0189 34152.75 50944.11)" gradientUnits="userSpaceOnUse"><stop offset="0" stop-color="#a761a3"></stop><stop offset="1" stop-color="#604387"></stop></linearGradient><polygon fill="url(#j)" points="9.535 18.862 8.456 19.582 7.702 20.085 9.204 22.335 11.009 21.131 9.535 18.862"></polygon><linearGradient id="k" x1="-1317.19" x2="-1316.19" y1="-73.974" y2="-73.974" gradientTransform="scale(39.459 -39.459) rotate(41.386 -755.908 1706.002)" gradientUnits="userSpaceOnUse"><stop offset="0" stop-color="#a761a3"></stop><stop offset="1" stop-color="#604387"></stop></linearGradient><polygon fill="url(#k)" points="2.706 8.348 .744 9.657 3.039 13.096 3.792 12.593 4.958 11.816 2.706 8.348"></polygon><polygon fill="#8053A3" points="7.128 20.505 7.983 21.788 6.701 22.644 5.845 21.361 7.128 20.505"></polygon><polygon fill="#6F488E" points="6.458 20.953 5.845 21.361 6.701 22.644 7.326 22.227 6.458 20.953"></polygon><polygon fill="#9E61AD" points="2.506 5.133 3.362 6.415 2.08 7.271 1.224 5.988 2.506 5.133"></polygon><polygon fill="#8A5497" points="1.899 5.538 1.224 5.988 2.08 7.271 2.739 6.831 1.899 5.538"></polygon><linearGradient id="l" x1="-1338.076" x2="-1337.076" y1="-95.571" y2="-95.571" gradientTransform="matrix(28.3008 34.1255 -31.3342 30.822 34874.02 48594.656)" gradientUnits="userSpaceOnUse"><stop offset="0" stop-color="#c06fbb"></stop><stop offset="1" stop-color="#6e4d9b"></stop></linearGradient><polygon fill="url(#l)" points="13.422 1.197 12.34 1.919 14.592 5.387 14.749 5.282 15.717 4.636 13.422 1.197"></polygon><linearGradient id="m" x1="-1338.076" x2="-1337.076" y1="-95.541" y2="-95.541" gradientTransform="matrix(28.3008 34.1255 -31.3342 30.822 34874.02 48594.656)" gradientUnits="userSpaceOnUse"><stop offset="0" stop-color="#a761a3"></stop><stop offset="1" stop-color="#604387"></stop></linearGradient><polygon fill="url(#m)" points="12.34 1.919 11.194 2.684 12.803 5.094 13.489 6.122 14.592 5.387 12.34 1.919"></polygon><linearGradient id="n" x1="-1317.543" x2="-1316.543" y1="-73.422" y2="-73.422" gradientTransform="scale(38.7716 -38.7716) rotate(39.362 -760.239 1804.448)" gradientUnits="userSpaceOnUse"><stop offset="0" stop-color="#c06fbb"></stop><stop offset="1" stop-color="#6e4d9b"></stop></linearGradient><polygon fill="url(#n)" points="20.38 11.625 19.413 12.27 19.218 12.4 20.692 14.67 21.882 13.875 20.38 11.625"></polygon><linearGradient id="o" x1="-1317.543" x2="-1316.543" y1="-73.418" y2="-73.418" gradientTransform="scale(38.7716 -38.7716) rotate(39.362 -760.239 1804.448)" gradientUnits="userSpaceOnUse"><stop offset="0" stop-color="#a761a3"></stop><stop offset="1" stop-color="#604387"></stop></linearGradient><polygon fill="url(#o)" points="19.218 12.4 18.153 13.111 18.817 14.106 19.655 15.362 20.692 14.67 19.218 12.4"></polygon></svg>